<?xml version="1.0" encoding="iso-8859-1"?>
<!-- Uploaded to: SVG Repo, www.svgrepo.com, Generator: SVG Repo Mixer Tools -->
<!DOCTYPE svg PUBLIC "-//W3C//DTD SVG 1.1//EN" "http://www.w3.org/Graphics/SVG/1.1/DTD/svg11.dtd">
<svg fill="#000000" height="800px" width="800px" version="1.1" id="Capa_1" xmlns="http://www.w3.org/2000/svg" xmlns:xlink="http://www.w3.org/1999/xlink" 
	 viewBox="0 0 476.8 476.8" xml:space="preserve">
<path d="M476.8,145.277C476.8,65.17,411.621,0,331.515,0c-35.413,0-67.878,12.771-93.118,33.908C213.163,12.771,180.698,0,145.277,0
	C65.17,0,0,65.17,0,145.277c0,35.421,12.771,67.886,33.908,93.12C12.771,263.637,0,296.102,0,331.515
	C0,411.622,65.17,476.8,145.277,476.8c35.421,0,67.887-12.779,93.12-33.916c25.24,21.137,57.705,33.916,93.118,33.916
	c80.106,0,145.285-65.178,145.285-145.285c0-35.413-12.779-67.878-33.916-93.118C464.02,213.164,476.8,180.698,476.8,145.277z
	 M445.017,145.277c0,26.932-9.474,51.669-25.201,71.144c-24.504-18.838-55.068-30.175-88.301-30.175
	c-17.598,0-34.404,3.305-50.023,9.063c5.757-15.627,9.063-32.426,9.063-50.031c0-33.233-11.337-63.797-30.175-88.301
	c19.474-15.729,44.212-25.194,71.136-25.194C394.102,31.782,445.017,82.698,445.017,145.277z M238.397,396.22
	c-12.804-18.374-20.369-40.658-20.369-64.705c0-24.046,7.565-46.322,20.369-64.697c12.81,18.375,20.376,40.651,20.376,64.697
	C258.772,355.561,251.206,377.845,238.397,396.22z M238.397,80.58c12.81,18.374,20.376,40.651,20.376,64.697
	c0,24.046-7.566,46.322-20.376,64.697c-12.804-18.375-20.369-40.651-20.369-64.697C218.028,121.231,225.593,98.954,238.397,80.58z
	 M396.22,238.397c-18.375,12.809-40.659,20.375-64.705,20.375c-24.046,0-46.323-7.566-64.697-20.375
	c18.374-12.803,40.651-20.369,64.697-20.369C355.561,218.028,377.845,225.594,396.22,238.397z M145.277,31.782
	c26.932,0,51.662,9.466,71.144,25.202c-18.838,24.503-30.175,55.059-30.175,88.293c0,17.605,3.305,34.404,9.063,50.031
	c-15.627-5.758-32.425-9.063-50.031-9.063c-33.232,0-63.789,11.337-88.293,30.175c-15.735-19.482-25.201-44.212-25.201-71.144
	C31.782,82.698,82.698,31.782,145.277,31.782z M209.974,238.397c-18.375,12.809-40.651,20.375-64.697,20.375
	c-24.046,0-46.322-7.566-64.697-20.375c18.375-12.803,40.651-20.369,64.697-20.369C169.323,218.028,191.599,225.594,209.974,238.397
	z M31.782,331.515c0-26.924,9.466-51.661,25.193-71.136c24.504,18.839,55.069,30.175,88.301,30.175
	c17.606,0,34.404-3.305,50.031-9.063c-5.757,15.619-9.063,32.425-9.063,50.023c0,33.233,11.337,63.798,30.175,88.302
	c-19.474,15.728-44.212,25.202-71.144,25.202C82.698,445.018,31.782,394.102,31.782,331.515z M331.515,445.018
	c-26.932,0-51.662-9.466-71.144-25.195c18.847-24.51,30.183-55.075,30.183-88.308c0-17.598-3.305-34.395-9.063-50.023
	c15.627,5.757,32.425,9.063,50.023,9.063c33.233,0,63.797-11.336,88.308-30.183c15.729,19.482,25.194,44.212,25.194,71.143
	C445.017,394.102,394.102,445.018,331.515,445.018z"/>
</svg>